
<svg id="visual" viewBox="0 0 960 540" width="960" height="540" xmlns="http://www.w3.org/2000/svg" xmlns:xlink="http://www.w3.org/1999/xlink" version="1.1"><g stroke-width="1" stroke-linejoin="bevel"><path d="M457 290L500 244L437 252Z" fill="#277297" stroke="#277297"></path><path d="M457 290L503 305L500 244Z" fill="#0c2435" stroke="#0c2435"></path><path d="M500 244L442 189L437 252Z" fill="#277297" stroke="#277297"></path><path d="M578 248L516 192L500 244Z" fill="#1d4e6b" stroke="#1d4e6b"></path><path d="M500 244L516 192L442 189Z" fill="#15384f" stroke="#15384f"></path><path d="M442 189L387 238L437 252Z" fill="#19435d" stroke="#19435d"></path><path d="M437 252L393 301L457 290Z" fill="#246688" stroke="#246688"></path><path d="M387 238L393 301L437 252Z" fill="#205a7a" stroke="#205a7a"></path><path d="M457 290L441 355L503 305Z" fill="#297ea6" stroke="#297ea6"></path><path d="M393 301L441 355L457 290Z" fill="#1d4e6b" stroke="#1d4e6b"></path><path d="M441 355L503 360L503 305Z" fill="#277297" stroke="#277297"></path><path d="M503 305L568 305L500 244Z" fill="#00101c" stroke="#00101c"></path><path d="M503 360L568 305L503 305Z" fill="#0c2435" stroke="#0c2435"></path><path d="M568 305L578 248L500 244Z" fill="#15384f" stroke="#15384f"></path><path d="M442 189L380 188L387 238Z" fill="#15384f" stroke="#15384f"></path><path d="M311 312L386 352L393 301Z" fill="#277297" stroke="#277297"></path><path d="M317 232L393 301L387 238Z" fill="#00101c" stroke="#00101c"></path><path d="M393 301L386 352L441 355Z" fill="#1d4e6b" stroke="#1d4e6b"></path><path d="M516 430L568 370L503 360Z" fill="#081a28" stroke="#081a28"></path><path d="M578 248L573 185L516 192Z" fill="#205a7a" stroke="#205a7a"></path><path d="M516 192L507 132L442 189Z" fill="#112e42" stroke="#112e42"></path><path d="M442 189L384 119L380 188Z" fill="#297ea6" stroke="#297ea6"></path><path d="M573 185L507 132L516 192Z" fill="#00101c" stroke="#00101c"></path><path d="M507 132L457 120L442 189Z" fill="#297ea6" stroke="#297ea6"></path><path d="M447 428L503 360L441 355Z" fill="#081a28" stroke="#081a28"></path><path d="M503 360L568 370L568 305Z" fill="#00101c" stroke="#00101c"></path><path d="M568 305L641 294L578 248Z" fill="#246688" stroke="#246688"></path><path d="M332 186L387 238L380 188Z" fill="#297ea6" stroke="#297ea6"></path><path d="M332 186L317 232L387 238Z" fill="#246688" stroke="#246688"></path><path d="M384 119L332 186L380 188Z" fill="#246688" stroke="#246688"></path><path d="M457 120L384 119L442 189Z" fill="#112e42" stroke="#112e42"></path><path d="M317 232L311 312L393 301Z" fill="#297ea6" stroke="#297ea6"></path><path d="M382 415L441 355L386 352Z" fill="#112e42" stroke="#112e42"></path><path d="M382 415L447 428L441 355Z" fill="#0c2435" stroke="#0c2435"></path><path d="M644 353L641 294L568 305Z" fill="#246688" stroke="#246688"></path><path d="M578 248L649 236L573 185Z" fill="#277297" stroke="#277297"></path><path d="M639 121L574 116L573 185Z" fill="#0c2435" stroke="#0c2435"></path><path d="M573 185L574 116L507 132Z" fill="#246688" stroke="#246688"></path><path d="M507 132L507 59L457 120Z" fill="#081a28" stroke="#081a28"></path><path d="M457 120L435 54L384 119Z" fill="#19435d" stroke="#19435d"></path><path d="M447 428L516 430L503 360Z" fill="#0c2435" stroke="#0c2435"></path><path d="M568 370L644 353L568 305Z" fill="#0c2435" stroke="#0c2435"></path><path d="M308 367L382 415L386 352Z" fill="#081a28" stroke="#081a28"></path><path d="M641 294L649 236L578 248Z" fill="#0c2435" stroke="#0c2435"></path><path d="M516 430L578 407L568 370Z" fill="#205a7a" stroke="#205a7a"></path><path d="M311 312L308 367L386 352Z" fill="#0c2435" stroke="#0c2435"></path><path d="M649 236L648 173L573 185Z" fill="#1d4e6b" stroke="#1d4e6b"></path><path d="M578 407L644 353L568 370Z" fill="#15384f" stroke="#15384f"></path><path d="M641 294L700 230L649 236Z" fill="#205a7a" stroke="#205a7a"></path><path d="M587 66L507 59L574 116Z" fill="#1d4e6b" stroke="#1d4e6b"></path><path d="M574 116L507 59L507 132Z" fill="#246688" stroke="#246688"></path><path d="M507 59L435 54L457 120Z" fill="#19435d" stroke="#19435d"></path><path d="M384 119L316 118L332 186Z" fill="#081a28" stroke="#081a28"></path><path d="M332 186L266 188L317 232Z" fill="#0c2435" stroke="#0c2435"></path><path d="M317 232L266 312L311 312Z" fill="#1d4e6b" stroke="#1d4e6b"></path><path d="M311 312L266 312L308 367Z" fill="#246688" stroke="#246688"></path><path d="M330 57L316 118L384 119Z" fill="#0c2435" stroke="#0c2435"></path><path d="M250 227L266 312L317 232Z" fill="#297ea6" stroke="#297ea6"></path><path d="M316 118L266 188L332 186Z" fill="#112e42" stroke="#112e42"></path><path d="M648 173L639 121L573 185Z" fill="#1d4e6b" stroke="#1d4e6b"></path><path d="M447 428L513 474L516 430Z" fill="#15384f" stroke="#15384f"></path><path d="M516 430L586 484L578 407Z" fill="#081a28" stroke="#081a28"></path><path d="M578 407L637 417L644 353Z" fill="#297ea6" stroke="#297ea6"></path><path d="M455 483L513 474L447 428Z" fill="#081a28" stroke="#081a28"></path><path d="M435 54L385 55L384 119Z" fill="#19435d" stroke="#19435d"></path><path d="M266 188L250 227L317 232Z" fill="#00101c" stroke="#00101c"></path><path d="M266 367L318 422L308 367Z" fill="#081a28" stroke="#081a28"></path><path d="M308 367L318 422L382 415Z" fill="#15384f" stroke="#15384f"></path><path d="M377 478L455 483L447 428Z" fill="#15384f" stroke="#15384f"></path><path d="M377 478L447 428L382 415Z" fill="#112e42" stroke="#112e42"></path><path d="M639 121L587 66L574 116Z" fill="#205a7a" stroke="#205a7a"></path><path d="M586 484L637 417L578 407Z" fill="#297ea6" stroke="#297ea6"></path><path d="M266 312L266 367L308 367Z" fill="#246688" stroke="#246688"></path><path d="M197 350L266 367L266 312Z" fill="#246688" stroke="#246688"></path><path d="M702 311L700 230L641 294Z" fill="#112e42" stroke="#112e42"></path><path d="M649 236L700 230L648 173Z" fill="#081a28" stroke="#081a28"></path><path d="M648 173L697 119L639 121Z" fill="#277297" stroke="#277297"></path><path d="M702 311L641 294L644 353Z" fill="#1d4e6b" stroke="#1d4e6b"></path><path d="M696 372L702 311L644 353Z" fill="#112e42" stroke="#112e42"></path><path d="M318 422L377 478L382 415Z" fill="#112e42" stroke="#112e42"></path><path d="M385 55L330 57L384 119Z" fill="#19435d" stroke="#19435d"></path><path d="M316 118L249 119L266 188Z" fill="#15384f" stroke="#15384f"></path><path d="M637 417L696 372L644 353Z" fill="#19435d" stroke="#19435d"></path><path d="M513 474L586 484L516 430Z" fill="#00101c" stroke="#00101c"></path><path d="M637 417L699 421L696 372Z" fill="#246688" stroke="#246688"></path><path d="M517 540L586 484L513 474Z" fill="#1d4e6b" stroke="#1d4e6b"></path><path d="M639 121L630 61L587 66Z" fill="#1d4e6b" stroke="#1d4e6b"></path><path d="M521 0L452 0L507 59Z" fill="#15384f" stroke="#15384f"></path><path d="M507 59L452 0L435 54Z" fill="#297ea6" stroke="#297ea6"></path><path d="M697 119L630 61L639 121Z" fill="#277297" stroke="#277297"></path><path d="M760 232L714 180L700 230Z" fill="#297ea6" stroke="#297ea6"></path><path d="M700 230L714 180L648 173Z" fill="#19435d" stroke="#19435d"></path><path d="M521 0L507 59L587 66Z" fill="#112e42" stroke="#112e42"></path><path d="M435 54L383 0L385 55Z" fill="#15384f" stroke="#15384f"></path><path d="M385 55L383 0L330 57Z" fill="#297ea6" stroke="#297ea6"></path><path d="M248 64L249 119L316 118Z" fill="#297ea6" stroke="#297ea6"></path><path d="M266 188L200 178L250 227Z" fill="#15384f" stroke="#15384f"></path><path d="M256 429L312 470L318 422Z" fill="#15384f" stroke="#15384f"></path><path d="M318 422L312 470L377 478Z" fill="#00101c" stroke="#00101c"></path><path d="M582 0L521 0L587 66Z" fill="#19435d" stroke="#19435d"></path><path d="M714 180L697 119L648 173Z" fill="#277297" stroke="#277297"></path><path d="M184 245L202 304L250 227Z" fill="#00101c" stroke="#00101c"></path><path d="M250 227L202 304L266 312Z" fill="#0c2435" stroke="#0c2435"></path><path d="M266 367L256 429L318 422Z" fill="#0c2435" stroke="#0c2435"></path><path d="M452 0L383 0L435 54Z" fill="#1d4e6b" stroke="#1d4e6b"></path><path d="M330 57L248 64L316 118Z" fill="#277297" stroke="#277297"></path><path d="M193 424L256 429L266 367Z" fill="#246688" stroke="#246688"></path><path d="M586 484L638 477L637 417Z" fill="#246688" stroke="#246688"></path><path d="M760 288L700 230L702 311Z" fill="#00101c" stroke="#00101c"></path><path d="M760 288L760 232L700 230Z" fill="#205a7a" stroke="#205a7a"></path><path d="M638 477L699 421L637 417Z" fill="#19435d" stroke="#19435d"></path><path d="M371 540L460 540L455 483Z" fill="#112e42" stroke="#112e42"></path><path d="M455 483L517 540L513 474Z" fill="#205a7a" stroke="#205a7a"></path><path d="M586 484L649 540L638 477Z" fill="#205a7a" stroke="#205a7a"></path><path d="M371 540L455 483L377 478Z" fill="#277297" stroke="#277297"></path><path d="M249 119L200 178L266 188Z" fill="#081a28" stroke="#081a28"></path><path d="M631 0L582 0L630 61Z" fill="#15384f" stroke="#15384f"></path><path d="M630 61L582 0L587 66Z" fill="#19435d" stroke="#19435d"></path><path d="M460 540L517 540L455 483Z" fill="#297ea6" stroke="#297ea6"></path><path d="M200 178L184 245L250 227Z" fill="#081a28" stroke="#081a28"></path><path d="M137 353L197 350L202 304Z" fill="#297ea6" stroke="#297ea6"></path><path d="M202 304L197 350L266 312Z" fill="#277297" stroke="#277297"></path><path d="M760 288L702 311L756 347Z" fill="#1d4e6b" stroke="#1d4e6b"></path><path d="M714 180L780 110L697 119Z" fill="#112e42" stroke="#112e42"></path><path d="M756 347L702 311L696 372Z" fill="#00101c" stroke="#00101c"></path><path d="M326 0L248 64L330 57Z" fill="#19435d" stroke="#19435d"></path><path d="M249 119L190 115L200 178Z" fill="#19435d" stroke="#19435d"></path><path d="M383 0L326 0L330 57Z" fill="#112e42" stroke="#112e42"></path><path d="M319 540L377 478L312 470Z" fill="#112e42" stroke="#112e42"></path><path d="M319 540L371 540L377 478Z" fill="#112e42" stroke="#112e42"></path><path d="M699 421L756 347L696 372Z" fill="#00101c" stroke="#00101c"></path><path d="M517 540L581 540L586 484Z" fill="#112e42" stroke="#112e42"></path><path d="M638 477L701 490L699 421Z" fill="#081a28" stroke="#081a28"></path><path d="M699 0L631 0L630 61Z" fill="#297ea6" stroke="#297ea6"></path><path d="M707 64L630 61L697 119Z" fill="#0c2435" stroke="#0c2435"></path><path d="M826 190L766 183L760 232Z" fill="#112e42" stroke="#112e42"></path><path d="M760 232L766 183L714 180Z" fill="#19435d" stroke="#19435d"></path><path d="M757 71L707 64L697 119Z" fill="#00101c" stroke="#00101c"></path><path d="M248 64L190 115L249 119Z" fill="#297ea6" stroke="#297ea6"></path><path d="M118 179L128 245L184 245Z" fill="#081a28" stroke="#081a28"></path><path d="M193 424L245 485L256 429Z" fill="#205a7a" stroke="#205a7a"></path><path d="M256 429L245 485L312 470Z" fill="#277297" stroke="#277297"></path><path d="M261 540L319 540L312 470Z" fill="#205a7a" stroke="#205a7a"></path><path d="M197 350L193 424L266 367Z" fill="#081a28" stroke="#081a28"></path><path d="M135 411L193 424L197 350Z" fill="#081a28" stroke="#081a28"></path><path d="M649 540L701 490L638 477Z" fill="#246688" stroke="#246688"></path><path d="M699 421L777 431L756 347Z" fill="#19435d" stroke="#19435d"></path><path d="M581 540L649 540L586 484Z" fill="#246688" stroke="#246688"></path><path d="M243 0L201 52L248 64Z" fill="#297ea6" stroke="#297ea6"></path><path d="M248 64L201 52L190 115Z" fill="#1d4e6b" stroke="#1d4e6b"></path><path d="M118 179L184 245L200 178Z" fill="#00101c" stroke="#00101c"></path><path d="M184 245L117 312L202 304Z" fill="#205a7a" stroke="#205a7a"></path><path d="M118 179L200 178L190 115Z" fill="#277297" stroke="#277297"></path><path d="M780 110L757 71L697 119Z" fill="#277297" stroke="#277297"></path><path d="M707 64L699 0L630 61Z" fill="#297ea6" stroke="#297ea6"></path><path d="M826 190L780 110L766 183Z" fill="#277297" stroke="#277297"></path><path d="M766 183L780 110L714 180Z" fill="#297ea6" stroke="#297ea6"></path><path d="M823 243L760 232L760 288Z" fill="#0c2435" stroke="#0c2435"></path><path d="M326 0L243 0L248 64Z" fill="#112e42" stroke="#112e42"></path><path d="M757 71L699 0L707 64Z" fill="#19435d" stroke="#19435d"></path><path d="M117 312L137 353L202 304Z" fill="#081a28" stroke="#081a28"></path><path d="M180 473L245 485L193 424Z" fill="#15384f" stroke="#15384f"></path><path d="M182 540L261 540L245 485Z" fill="#19435d" stroke="#19435d"></path><path d="M245 485L261 540L312 470Z" fill="#19435d" stroke="#19435d"></path><path d="M762 487L777 431L699 421Z" fill="#00101c" stroke="#00101c"></path><path d="M827 304L823 243L760 288Z" fill="#297ea6" stroke="#297ea6"></path><path d="M762 487L699 421L701 490Z" fill="#246688" stroke="#246688"></path><path d="M827 304L760 288L756 347Z" fill="#205a7a" stroke="#205a7a"></path><path d="M128 245L117 312L184 245Z" fill="#277297" stroke="#277297"></path><path d="M842 368L827 304L756 347Z" fill="#1d4e6b" stroke="#1d4e6b"></path><path d="M135 411L180 473L193 424Z" fill="#19435d" stroke="#19435d"></path><path d="M135 411L197 350L137 353Z" fill="#1d4e6b" stroke="#1d4e6b"></path><path d="M130 112L118 179L190 115Z" fill="#205a7a" stroke="#205a7a"></path><path d="M128 245L55 290L117 312Z" fill="#277297" stroke="#277297"></path><path d="M901 228L826 190L823 243Z" fill="#246688" stroke="#246688"></path><path d="M823 243L826 190L760 232Z" fill="#112e42" stroke="#112e42"></path><path d="M56 370L135 411L137 353Z" fill="#19435d" stroke="#19435d"></path><path d="M649 540L709 540L701 490Z" fill="#112e42" stroke="#112e42"></path><path d="M131 67L130 112L190 115Z" fill="#15384f" stroke="#15384f"></path><path d="M131 67L190 115L201 52Z" fill="#277297" stroke="#277297"></path><path d="M709 540L762 487L701 490Z" fill="#297ea6" stroke="#297ea6"></path><path d="M777 431L822 409L756 347Z" fill="#15384f" stroke="#15384f"></path><path d="M243 0L198 0L201 52Z" fill="#112e42" stroke="#112e42"></path><path d="M842 487L822 409L777 431Z" fill="#205a7a" stroke="#205a7a"></path><path d="M822 409L842 368L756 347Z" fill="#19435d" stroke="#19435d"></path><path d="M827 304L900 297L823 243Z" fill="#19435d" stroke="#19435d"></path><path d="M121 0L131 67L201 52Z" fill="#081a28" stroke="#081a28"></path><path d="M72 113L64 178L118 179Z" fill="#205a7a" stroke="#205a7a"></path><path d="M903 130L838 110L826 190Z" fill="#081a28" stroke="#081a28"></path><path d="M826 190L838 110L780 110Z" fill="#246688" stroke="#246688"></path><path d="M780 110L842 57L757 71Z" fill="#277297" stroke="#277297"></path><path d="M757 71L778 0L699 0Z" fill="#277297" stroke="#277297"></path><path d="M73 471L131 471L135 411Z" fill="#297ea6" stroke="#297ea6"></path><path d="M135 411L131 471L180 473Z" fill="#00101c" stroke="#00101c"></path><path d="M180 473L182 540L245 485Z" fill="#15384f" stroke="#15384f"></path><path d="M136 540L182 540L180 473Z" fill="#0c2435" stroke="#0c2435"></path><path d="M842 57L778 0L757 71Z" fill="#1d4e6b" stroke="#1d4e6b"></path><path d="M709 540L768 540L762 487Z" fill="#081a28" stroke="#081a28"></path><path d="M762 487L842 487L777 431Z" fill="#246688" stroke="#246688"></path><path d="M904 354L827 304L842 368Z" fill="#297ea6" stroke="#297ea6"></path><path d="M72 113L118 179L130 112Z" fill="#297ea6" stroke="#297ea6"></path><path d="M118 179L55 239L128 245Z" fill="#15384f" stroke="#15384f"></path><path d="M117 312L56 370L137 353Z" fill="#246688" stroke="#246688"></path><path d="M64 178L55 239L118 179Z" fill="#297ea6" stroke="#297ea6"></path><path d="M55 239L55 290L128 245Z" fill="#15384f" stroke="#15384f"></path><path d="M890 65L842 57L838 110Z" fill="#15384f" stroke="#15384f"></path><path d="M838 110L842 57L780 110Z" fill="#081a28" stroke="#081a28"></path><path d="M0 188L0 232L55 239Z" fill="#15384f" stroke="#15384f"></path><path d="M131 67L72 113L130 112Z" fill="#19435d" stroke="#19435d"></path><path d="M51 47L72 113L131 67Z" fill="#19435d" stroke="#19435d"></path><path d="M55 290L56 370L117 312Z" fill="#246688" stroke="#246688"></path><path d="M131 471L136 540L180 473Z" fill="#277297" stroke="#277297"></path><path d="M904 354L842 368L888 420Z" fill="#1d4e6b" stroke="#1d4e6b"></path><path d="M904 354L900 297L827 304Z" fill="#081a28" stroke="#081a28"></path><path d="M900 297L901 228L823 243Z" fill="#205a7a" stroke="#205a7a"></path><path d="M901 228L898 187L826 190Z" fill="#297ea6" stroke="#297ea6"></path><path d="M198 0L121 0L201 52Z" fill="#246688" stroke="#246688"></path><path d="M70 540L136 540L131 471Z" fill="#0c2435" stroke="#0c2435"></path><path d="M768 540L842 487L762 487Z" fill="#277297" stroke="#277297"></path><path d="M888 420L842 368L822 409Z" fill="#277297" stroke="#277297"></path><path d="M900 297L960 247L901 228Z" fill="#0c2435" stroke="#0c2435"></path><path d="M842 487L888 420L822 409Z" fill="#0c2435" stroke="#0c2435"></path><path d="M0 360L52 422L56 370Z" fill="#112e42" stroke="#112e42"></path><path d="M56 370L52 422L135 411Z" fill="#112e42" stroke="#112e42"></path><path d="M0 311L56 370L55 290Z" fill="#1d4e6b" stroke="#1d4e6b"></path><path d="M898 0L837 0L842 57Z" fill="#1d4e6b" stroke="#1d4e6b"></path><path d="M842 57L837 0L778 0Z" fill="#277297" stroke="#277297"></path><path d="M52 422L73 471L135 411Z" fill="#277297" stroke="#277297"></path><path d="M898 187L903 130L826 190Z" fill="#112e42" stroke="#112e42"></path><path d="M960 172L903 130L898 187Z" fill="#081a28" stroke="#081a28"></path><path d="M960 172L898 187L901 228Z" fill="#297ea6" stroke="#297ea6"></path><path d="M903 130L890 65L838 110Z" fill="#15384f" stroke="#15384f"></path><path d="M768 540L842 540L842 487Z" fill="#15384f" stroke="#15384f"></path><path d="M842 487L886 491L888 420Z" fill="#246688" stroke="#246688"></path><path d="M121 0L51 47L131 67Z" fill="#15384f" stroke="#15384f"></path><path d="M0 188L55 239L64 178Z" fill="#205a7a" stroke="#205a7a"></path><path d="M55 239L0 232L55 290Z" fill="#0c2435" stroke="#0c2435"></path><path d="M0 188L64 178L0 120Z" fill="#205a7a" stroke="#205a7a"></path><path d="M0 232L0 311L55 290Z" fill="#1d4e6b" stroke="#1d4e6b"></path><path d="M0 472L70 540L73 471Z" fill="#1d4e6b" stroke="#1d4e6b"></path><path d="M0 120L64 178L72 113Z" fill="#297ea6" stroke="#297ea6"></path><path d="M842 540L886 491L842 487Z" fill="#081a28" stroke="#081a28"></path><path d="M960 369L960 287L904 354Z" fill="#297ea6" stroke="#297ea6"></path><path d="M0 311L0 360L56 370Z" fill="#15384f" stroke="#15384f"></path><path d="M121 0L56 0L51 47Z" fill="#1d4e6b" stroke="#1d4e6b"></path><path d="M0 58L0 120L72 113Z" fill="#246688" stroke="#246688"></path><path d="M0 472L73 471L52 422Z" fill="#297ea6" stroke="#297ea6"></path><path d="M73 471L70 540L131 471Z" fill="#277297" stroke="#277297"></path><path d="M0 58L72 113L51 47Z" fill="#297ea6" stroke="#297ea6"></path><path d="M960 287L900 297L904 354Z" fill="#0c2435" stroke="#0c2435"></path><path d="M960 287L960 247L900 297Z" fill="#081a28" stroke="#081a28"></path><path d="M903 130L960 71L890 65Z" fill="#0c2435" stroke="#0c2435"></path><path d="M960 369L904 354L960 411Z" fill="#246688" stroke="#246688"></path><path d="M960 247L960 172L901 228Z" fill="#277297" stroke="#277297"></path><path d="M960 71L898 0L890 65Z" fill="#1d4e6b" stroke="#1d4e6b"></path><path d="M890 65L898 0L842 57Z" fill="#19435d" stroke="#19435d"></path><path d="M0 360L0 431L52 422Z" fill="#1d4e6b" stroke="#1d4e6b"></path><path d="M960 411L904 354L888 420Z" fill="#15384f" stroke="#15384f"></path><path d="M842 540L891 540L886 491Z" fill="#277297" stroke="#277297"></path><path d="M960 476L960 411L888 420Z" fill="#0c2435" stroke="#0c2435"></path><path d="M960 172L960 129L903 130Z" fill="#15384f" stroke="#15384f"></path><path d="M0 0L0 58L51 47Z" fill="#297ea6" stroke="#297ea6"></path><path d="M960 476L888 420L886 491Z" fill="#277297" stroke="#277297"></path><path d="M0 431L0 472L52 422Z" fill="#112e42" stroke="#112e42"></path><path d="M960 129L960 71L903 130Z" fill="#246688" stroke="#246688"></path><path d="M960 540L960 476L886 491Z" fill="#00101c" stroke="#00101c"></path><path d="M56 0L0 0L51 47Z" fill="#00101c" stroke="#00101c"></path><path d="M0 472L0 540L70 540Z" fill="#15384f" stroke="#15384f"></path><path d="M960 71L960 0L898 0Z" fill="#277297" stroke="#277297"></path><path d="M891 540L960 540L886 491Z" fill="#277297" stroke="#277297"></path></g></svg>