
<svg id="visual" viewBox="0 0 900 300" width="900" height="300" xmlns="http://www.w3.org/2000/svg" xmlns:xlink="http://www.w3.org/1999/xlink" version="1.1"><path d="M0 25L18.8 25.5C37.7 26 75.3 27 112.8 27C150.3 27 187.7 26 225.2 24.5C262.7 23 300.3 21 337.8 20.5C375.3 20 412.7 21 450.2 23C487.7 25 525.3 28 562.8 28.5C600.3 29 637.7 27 675.2 26C712.7 25 750.3 25 787.8 25C825.3 25 862.7 25 881.3 25L900 25L900 0L881.3 0C862.7 0 825.3 0 787.8 0C750.3 0 712.7 0 675.2 0C637.7 0 600.3 0 562.8 0C525.3 0 487.7 0 450.2 0C412.7 0 375.3 0 337.8 0C300.3 0 262.7 0 225.2 0C187.7 0 150.3 0 112.8 0C75.3 0 37.7 0 18.8 0L0 0Z" fill="#020817"></path><path d="M0 88L18.8 89C37.7 90 75.3 92 112.8 94C150.3 96 187.7 98 225.2 98.5C262.7 99 300.3 98 337.8 96C375.3 94 412.7 91 450.2 89.5C487.7 88 525.3 88 562.8 88C600.3 88 637.7 88 675.2 87.5C712.7 87 750.3 86 787.8 85.5C825.3 85 862.7 85 881.3 85L900 85L900 23L881.3 23C862.7 23 825.3 23 787.8 23C750.3 23 712.7 23 675.2 24C637.7 25 600.3 27 562.8 26.5C525.3 26 487.7 23 450.2 21C412.7 19 375.3 18 337.8 18.5C300.3 19 262.7 21 225.2 22.5C187.7 24 150.3 25 112.8 25C75.3 25 37.7 24 18.8 23.5L0 23Z" fill="#273c5e"></path><path d="M0 109L18.8 109.5C37.7 110 75.3 111 112.8 113.5C150.3 116 187.7 120 225.2 120C262.7 120 300.3 116 337.8 112.5C375.3 109 412.7 106 450.2 104.5C487.7 103 525.3 103 562.8 104.5C600.3 106 637.7 109 675.2 109C712.7 109 750.3 106 787.8 104C825.3 102 862.7 101 881.3 100.5L900 100L900 83L881.3 83C862.7 83 825.3 83 787.8 83.5C750.3 84 712.7 85 675.2 85.5C637.7 86 600.3 86 562.8 86C525.3 86 487.7 86 450.2 87.5C412.7 89 375.3 92 337.8 94C300.3 96 262.7 97 225.2 96.5C187.7 96 150.3 94 112.8 92C75.3 90 37.7 88 18.8 87L0 86Z" fill="#4774b1"></path><path d="M0 127L18.8 128.5C37.7 130 75.3 133 112.8 136C150.3 139 187.7 142 225.2 141.5C262.7 141 300.3 137 337.8 134.5C375.3 132 412.7 131 450.2 129.5C487.7 128 525.3 126 562.8 126C600.3 126 637.7 128 675.2 128.5C712.7 129 750.3 128 787.8 126.5C825.3 125 862.7 123 881.3 122L900 121L900 98L881.3 98.5C862.7 99 825.3 100 787.8 102C750.3 104 712.7 107 675.2 107C637.7 107 600.3 104 562.8 102.5C525.3 101 487.7 101 450.2 102.5C412.7 104 375.3 107 337.8 110.5C300.3 114 262.7 118 225.2 118C187.7 118 150.3 114 112.8 111.5C75.3 109 37.7 108 18.8 107.5L0 107Z" fill="#60a5fa"></path><path d="M0 205L18.8 206C37.7 207 75.3 209 112.8 208.5C150.3 208 187.7 205 225.2 201C262.7 197 300.3 192 337.8 192C375.3 192 412.7 197 450.2 196.5C487.7 196 525.3 190 562.8 191.5C600.3 193 637.7 202 675.2 204C712.7 206 750.3 201 787.8 200C825.3 199 862.7 202 881.3 203.5L900 205L900 119L881.3 120C862.7 121 825.3 123 787.8 124.5C750.3 126 712.7 127 675.2 126.5C637.7 126 600.3 124 562.8 124C525.3 124 487.7 126 450.2 127.5C412.7 129 375.3 130 337.8 132.5C300.3 135 262.7 139 225.2 139.5C187.7 140 150.3 137 112.8 134C75.3 131 37.7 128 18.8 126.5L0 125Z" fill="#60a5fa"></path><path d="M0 247L18.8 246C37.7 245 75.3 243 112.8 242C150.3 241 187.7 241 225.2 239.5C262.7 238 300.3 235 337.8 235C375.3 235 412.7 238 450.2 236C487.7 234 525.3 227 562.8 228C600.3 229 637.7 238 675.2 240.5C712.7 243 750.3 239 787.8 238.5C825.3 238 862.7 241 881.3 242.5L900 244L900 203L881.3 201.5C862.7 200 825.3 197 787.8 198C750.3 199 712.7 204 675.2 202C637.7 200 600.3 191 562.8 189.5C525.3 188 487.7 194 450.2 194.5C412.7 195 375.3 190 337.8 190C300.3 190 262.7 195 225.2 199C187.7 203 150.3 206 112.8 206.5C75.3 207 37.7 205 18.8 204L0 203Z" fill="#4774b1"></path><path d="M0 277L18.8 276C37.7 275 75.3 273 112.8 273.5C150.3 274 187.7 277 225.2 278C262.7 279 300.3 278 337.8 277C375.3 276 412.7 275 450.2 274C487.7 273 525.3 272 562.8 273C600.3 274 637.7 277 675.2 276.5C712.7 276 750.3 272 787.8 272C825.3 272 862.7 276 881.3 278L900 280L900 242L881.3 240.5C862.7 239 825.3 236 787.8 236.5C750.3 237 712.7 241 675.2 238.5C637.7 236 600.3 227 562.8 226C525.3 225 487.7 232 450.2 234C412.7 236 375.3 233 337.8 233C300.3 233 262.7 236 225.2 237.5C187.7 239 150.3 239 112.8 240C75.3 241 37.7 243 18.8 244L0 245Z" fill="#273c5e"></path><path d="M0 301L18.8 301C37.7 301 75.3 301 112.8 301C150.3 301 187.7 301 225.2 301C262.7 301 300.3 301 337.8 301C375.3 301 412.7 301 450.2 301C487.7 301 525.3 301 562.8 301C600.3 301 637.7 301 675.2 301C712.7 301 750.3 301 787.8 301C825.3 301 862.7 301 881.3 301L900 301L900 278L881.3 276C862.7 274 825.3 270 787.8 270C750.3 270 712.7 274 675.2 274.5C637.7 275 600.3 272 562.8 271C525.3 270 487.7 271 450.2 272C412.7 273 375.3 274 337.8 275C300.3 276 262.7 277 225.2 276C187.7 275 150.3 272 112.8 271.5C75.3 271 37.7 273 18.8 274L0 275Z" fill="#020817"></path></svg>